<?xml version="1.0" encoding="utf-8"?>
<!-- Generator: Adobe Illustrator 25.4.1, SVG Export Plug-In . SVG Version: 6.00 Build 0)  -->
<svg version="1.1"
	 id="Danganronpa-logo" xmlns:cc="http://creativecommons.org/ns#" xmlns:dc="http://purl.org/dc/elements/1.1/" xmlns:inkscape="http://www.inkscape.org/namespaces/inkscape" xmlns:rdf="http://www.w3.org/1999/02/22-rdf-syntax-ns#" xmlns:sodipodi="http://sodipodi.sourceforge.net/DTD/sodipodi-0.dtd" xmlns:svg="http://www.w3.org/2000/svg"
	 xmlns="http://www.w3.org/2000/svg" xmlns:xlink="http://www.w3.org/1999/xlink" x="0px" y="0px" viewBox="0 0 1167.9 301.9"
	 enable-background="new 0 0 1167.9 301.9" xml:space="preserve">
<path id="path74" d="M185.9,0c-57.6,0-57-0.1-62.4,5.4c-1.5,1.5-13.2,19-26.1,38.9C74.8,79.2,73.9,80.8,72.2,88.5
	c-0.9,4.4-1.9,8.7-2.2,9.6c-0.4,1.3,0.8,1.9,5.8,2.8c11.9,2.3,25,10.8,29.4,19.2c1.7,3.3,2.8,3.6,4,1c0.5-1,12.1-19.3,25.9-40.5
	l25-38.6H187c29.1,0,29.4,0.1,26.9,5.5c-1.9,4.1-52.2,81.7-58.1,89.5c-12.8,17-24,25.1-37.7,27.2c-3.8,0.6-7.8,1.2-8.9,1.4
	c-1.2,0.2-3.1,2.5-5,6.1c-3.7,7.2-13.8,18-21.7,23.3l-6,4l35.4,0c47,0,49.3-0.6,59.7-13.5c6.2-7.7,91.7-140.4,94.8-147.1
	c3.3-7.2,3.9-13,2-19.5C265.3,8.4,258.2,2.8,246,1C242.2,0.5,215.4,0,185.9,0z M614.2,26.9l-5.1,5.7l-5.1,5.7V35
	c0-2.3-0.8-4-2.7-5.6c-2.7-2.3-2.9-2.3-28.4-2.3c-29,0-35.5,0.9-45.4,6.2c-8.6,4.6-15.3,11.5-24,24.8c-4.1,6.3-15.7,24-25.6,39.3
	c-26.5,40.7-27.5,38.6,18.9,38.6c36.7,0,36.8,0,43.8-7c1.7-1.7,3.1-2.8,3.1-2.5c0,1.5-14.4,21.7-16.7,23.5c-1.4,1.1-4.8,2.8-7.6,3.7
	c-4.7,1.6-16.4,1.8-161.1,2l-156,0.3l-12.8,19.8c-7,10.9-12.8,20.3-12.8,21c0,0.8,43.5,1.1,168.8,0.9l168.7-0.3l8-2.7
	c10.3-3.5,19.3-8.8,27.1-16c7.2-6.7,3.7-1.6,47.9-69.2c37.3-57,39.1-59.6,50.2-72.6c4-4.7,7.3-8.9,7.3-9.2c0-0.4-9.1-0.7-20.2-0.7
	L614.2,26.9z M705.9,27c-30.1,0-36.8,0.2-39.1,1.4c-3,1.5-13.4,17.2-12.5,18.7C654.6,47.6,667,48,682,48c15,0,28.2,0.3,29.4,0.6
	c1.2,0.3,2.2,1.3,2.2,2.3c0,2.3-4.6,8.8-7.3,10.3c-1.6,0.9-9.6,1.4-27.3,1.8l-25.1,0.5l-7.6,3.7c-5.6,2.8-9.2,5.5-14.1,10.6
	c-6.9,7.3-20.9,27.5-25.8,37.2c-5.2,10.4-3.4,17.2,5.5,20.5c3.1,1.1,8.2,1.4,22.5,1.2c20.5-0.3,21.4-0.5,29.2-7.5l4.1-3.7l-2.8,4.2
	c-4.6,7-4,7.3,14.5,7.3c11.9,0,16.8-0.4,18.8-1.4c3.5-1.8,47-68.5,55.2-84.6c6.5-12.7,3.9-21.3-6.7-23.1
	C744.4,27.5,725.8,27.1,705.9,27z M805.6,27.1L805.6,27.1L805.6,27.1L805.6,27.1L805.6,27.1c-15.5,0-17.5,0.4-20,1.7
	c-2.7,1.4-6.4,6.4-15.8,20.8c-44.6,68.6-55.3,85.4-54.7,86.3c0.4,0.6,5.3,1,12.4,1c10.1,0,12.2-0.3,14.2-1.9
	c1.3-1,14.3-20.2,28.9-42.5L797.2,52l13.3,0c14.8,0,15.6,0.4,12.7,6c-0.9,1.8-11.6,18.3-23.7,36.8c-26.3,40.1-26.1,39.8-25.3,41.1
	c0.4,0.7,52.8,1,164.4,1h163.7l0.9-2.5c-0.8-1.1-1.7-2.2-2.5-3.3c-1.1,0.8-3.2,0.8-9.1,0.8c-2.1,0-3.6,0-4.9-0.1
	c-1.5,2.5-4.3,2.4-7,1.6c-0.4,0-0.9,0-1.3,0c-0.2-0.1-0.4-0.1-0.5-0.2c-0.8-0.2-1.8-0.3-2.5-0.5c-0.3-0.1-0.5-0.2-0.7-0.2
	c0,0,0,0,0,0c-1.2,0-2.3,0-3.4,0c-0.1,0-0.2,0-0.3,0c0,0-0.1,0-0.1,0c-0.9,0.1-1.9,0.1-2.7-0.2c-0.1,0-0.2,0.1-0.3,0c0,0,0,0,0,0
	c-0.9,0-1.8,0-2.6,0.1c-0.3,0-0.5-0.1-0.8-0.1c-0.1,0-0.4,0-0.4-0.1c-0.1,0-0.3,0-0.4,0c-0.1,0-0.2,0-0.2,0
	c-1.2,0.3-2.1-0.1-3.1-0.4c-0.2,0-0.4-0.1-0.4-0.1c-0.1,0-0.2-0.1-0.3-0.1c0,0,0,0,0,0c-0.1,0-0.2,0-0.4,0c-0.4,0-0.8,0-1.3,0l0,0.1
	l-5.7,0.3c-2.6,0.1-4,0.2-4.7,0c-1.2,0.2-2.3,0.3-3.5,0.2c-1.6,0-3.3,0-4.9,0c-2.7,0-5.4,0-8.1,0c-1.8,0-3.6,0.1-5.3,0
	c-0.2,0-0.6-0.1-0.6-0.1c-0.9,0.7-1.7,1.1-3.2,0.1c-2,0-3.9,0.7-5.9,0.7c-1.9,0-3.8,0-5.7,0c-1.7,0-3.4,0-5.2,0c-1,0-2-0.1-3,0
	c-0.5,0.1-1,0.2-1.6,0.2c-0.5,0-1,0-1.5,0c-1.9-0.2-2.4-0.2-4.4-0.8c-0.2,0-0.4,0-0.6,0c0,0-0.1,0,0-0.1c0.1-0.1,0.5-0.1,0.4-0.1
	c-0.7,0.1-1.5,0.5-2.2,0.3c-0.7-0.1-1.5-0.4-2.2-0.6c0,0-0.1,0-0.2,0c-0.9,0-1.9-0.2-2.8-0.3c-0.4,0-0.7,0-1.1,0
	c-0.4,0-1,0.3-1.2-0.1c0-0.1-0.1-0.1-0.1-0.2c-1,0-2,0-3,0c-0.4,0-0.9,0-1.3,0c-0.4,0-0.8,0-1.2,0c-0.3,0-0.6,0.1-0.9,0.1
	c-0.7,0-0.9-0.1-1.2-0.3c-0.1,0-0.1,0-0.2,0c0,0-0.1,0-0.1,0c-1.2,0.1-2.3,0.1-3.5-0.1c-1.1-0.3,0.4,0.1-0.9-0.2c0,0-0.1,0-0.1-0.1
	c-0.6,0-1.2,0-1.7-0.3c-0.1,0-0.2,0-0.3,0c-0.2,0-0.4,0-0.6,0c0,0-0.1,0-0.1,0c-1.7,0.5-3.3,0.8-5.1,0.6c-1.6,0-3.1,0-4.7,0
	c-1.3,0-2.6,0-4,0c-1.9,0-3.8,0-5.7,0c-1.7,0-3.4,0-5.1,0c-1.6,0-3.3,0.2-4.9,0.1c-0.5,0-0.9-0.1-1.4-0.1c0,0-0.1,0-0.1,0
	c-1.7,0.4-2.9,0.7-4.5,0.6c-1.2,0-2.3,0-3.5,0c-1.8,0-3.6,0-5.4,0c-5.3-0.7-10.2,0.6-14.6,0.6c-1.4,0-2.1-0.1-2.5-0.7
	c0,0-0.1,0-0.1,0c0.4-0.2-0.9,0.1-1.3,0.2c-0.2,0-0.4,0-0.6,0c-0.4,0.4-1.2,0.4-2.5,0.4c-0.7,0-1.3,0-1.7-0.1c0,0-0.1,0-0.1,0
	c0,0,0,0,0,0c0,0,0,0,0,0c-0.1,0-0.2-0.1-0.3-0.1c0.1,0.1,0.1,0.1,0.2,0.1c-0.1,0-0.3-0.1-0.4-0.1c-0.4,0-0.9-0.1-1.3,0.1
	c-0.3,0.1-0.7,0.1-1,0.2c-0.1,0-0.5,0-0.6,0c-1.2,0.1-2.4,0-3.5-0.2c0,0.1-0.1,0.2-0.1,0.3c0,0.2-1.4,0-2.7-0.2c-0.5,0-0.9,0-1.4,0
	c-3.8,0-7.5,0.1-11.1-0.4c-0.2-0.1-0.1,0-0.3-0.1c-2.6-0.1-5.2,0.5-7.7,0.5c0,0,0,0,0,0c-0.2,0.1,1,0.1,0.1,0.1c-1.4,0-2.7,0-4.1,0
	c-0.5,0-1,0-1.5,0c-0.4,0-0.8,0-1.2,0c-0.4,0-0.8,0-1.2,0h-1.1h-1.3c-5.9-0.2-12-0.1-18-0.1c-16.7,0-20-0.2-19.6-1.4
	c0.3-0.8,11.1-17.6,24.1-37.4c13-19.8,24.5-38,25.6-40.4c1.2-2.6,2-6.6,2-10c0-6.6-2-9.8-8.3-13.2c-4-2.2-5.1-2.2-41.2-2.5
	C817.5,27.1,810.8,27.1,805.6,27.1L805.6,27.1z M331,27.5c-38.7,0-40.2,0.1-42.4,2c-3,2.6-11,14.9-11,16.9c0,1.3,3.7,1.6,28.9,1.8
	c15.9,0.2,29.2,0.6,29.6,1c1.3,1.3-0.6,5.9-4,9.6l-3.4,3.7L303,63l-25.8,0.5l-6.9,3.3c-5,2.4-8.9,5.3-14,10.5
	c-7.4,7.5-21.4,27.4-26.6,37.7c-5.3,10.4-3.4,17.3,5.5,20.5c3.1,1.1,8.2,1.4,22.5,1.2c20.5-0.3,21.4-0.5,29.2-7.5l4.1-3.7l-2.8,4.2
	c-4.6,7-4,7.3,14.5,7.3c12,0,16.8-0.4,18.9-1.4c1.9-1,9.6-12,25.3-36.3c12.4-19.1,24.4-38,26.6-41.8c7-11.9,8.6-18.8,5.7-24.4
	C376.4,27.7,374.8,27.5,331,27.5z M446.2,27.5c-36.4,0-38.1,0.1-40.7,2c-2.3,1.7-67.3,100.1-69,104.4c-0.3,0.9-0.4,1.9-0.2,2.3
	s5.7,0.8,12.2,0.8c10.3,0,12.1-0.3,14.3-2c1.4-1.1,14.4-20.2,28.9-42.5L418.2,52l13.5,0.2c12,0.2,13.5,0.4,13.8,2
	c0.4,1.9-1.9,5.5-31.1,50.1c-10.4,15.9-19,29.6-19.1,30.5c-0.1,1.4,2.2,1.7,21.3,1.9c17.4,0.2,21.8,0,23.6-1.2
	c2.6-1.7,50.8-74.8,54.2-82.3c3-6.6,3.3-14.5,0.5-18.2c-1.1-1.4-3.9-3.7-6.3-5.1l-4.4-2.5L446.2,27.5z M577.9,50.1
	c8.7,0,14.8,0.1,14.8,0.3c0,0.9-22.3,35-25.9,39.6c-7.3,9.3-15.9,13.9-29.5,15.8c-9.2,1.3-28.6,1.4-28.6,0.2c0-0.5,8-13.2,17.9-28.2
	l17.9-27.4l24.1-0.3C571.9,50.2,575,50.2,577.9,50.1z M305.1,77c11.6,0,14.5,0.3,14.9,1.5c0.3,0.8-3.2,7.1-8.3,14.8
	c-9.2,13.8-13.1,17.6-20.9,20.3c-2.2,0.8-8.6,1.7-14.3,2c-8.5,0.6-10.6,0.4-11.6-0.8c-1.3-1.5-0.9-2.2,17-29.8c2-3,4.8-6.1,6.2-6.8
	C289.8,77.4,296,77,305.1,77z M681.4,77c14.6,0,15.3,0.1,15.3,2c0,2.7-13.7,23.6-18.6,28.3c-2.1,2.1-6.2,4.6-9.1,5.7
	c-3.3,1.2-8.9,2.1-15.5,2.5c-10.3,0.5-12.8,0.2-12.8-1.6c0-1.7,21.2-33.9,23.4-35.4C665.6,77.3,669.6,77,681.4,77z M69.3,88.4
	c-0.8,0.3-4.4,5.4-6.5,9.4c-1.1,2.1-1,2.2,1.8,2.2c2.8,0,3-0.3,4.1-5.6c0.6-3.1,1-5.8,0.7-6C69.4,88.4,69.3,88.4,69.3,88.4
	L69.3,88.4z M66,102.3c-0.7,0-2,0.1-3.4,0.3c-3,0.5-4.1,1.5-8.2,7.9c-2.6,4-4.7,7.6-4.7,7.9c0,0.3,1,0.1,2.2-0.3
	c1.2-0.5,4.5-1.2,7.3-1.5l5.1-0.7l1.2-6.5c0.7-3.6,1-6.7,0.9-6.9C66.4,102.3,66.2,102.3,66,102.3L66,102.3z M71.1,102.7
	c-1.1,0-1.8,0.2-1.9,0.6c-0.5,1.7-2.5,11.6-2.5,12.7c0,0.5,0.8,1,1.8,1c8.7,0,21.4,10.3,24.6,19.8c1,2.9,1.9,5.2,2,5.2
	s2.6-3.6,5.5-8l5.2-8l-2.5-4.3c-3.5-6-10.8-12.4-17.2-15.3C81.2,104.2,74.4,102.7,71.1,102.7L71.1,102.7z M59.8,129.1
	c-1.2,0-3.1,0.7-6.4,1.9c-6.6,2.5-12.2,7-15.9,12.9c-3.5,5.5-3.6,7.1-0.4,7.1c1.6,0,2.5,0.6,2.5,1.6c0,1.2-0.7,1.4-3,0.9
	c-2.6-0.6-3-0.3-3.7,2.1c-0.8,3.4,1,10.7,3.6,14.4c1.1,1.5,3.9,3.7,6.2,4.9c5.7,2.9,9.2,2.5,9.6-1.2c0.2-1.5,0.9-2.8,1.6-2.8
	c0.8,0,1.1,1,0.8,3.1c-0.4,3.1-0.4,3.1,2.9,2.4c8.7-1.9,17.6-8.9,21.8-17.2l2.1-4.2l-3-0.7c-3.9-0.9-3.8-2.3,0.3-2.7
	c2.6-0.2,3.3-0.8,3.6-2.7c1-7-4.9-16.2-12-18.8c-5.3-1.9-6.5-1.6-7.2,1.7c-0.3,1.6-1.1,3-1.8,3c-0.7,0-0.9-1.1-0.6-3
	C61.4,129.9,61.3,129,59.8,129.1z M939.7,130.3c-0.1,0-0.2,0.1-0.3,0.1c0,0,0.1,0,0.1,0C939.6,130.4,939.8,130.3,939.7,130.3
	L939.7,130.3z M988.2,130.8c-0.1,0,0.1,0.1,0.2,0.1c0,0,0-0.1-0.1-0.1C988.2,130.9,988.2,130.9,988.2,130.8L988.2,130.8z M985.6,131
	c-0.1,0-0.2,0-0.3,0c0,0.2,0.2,0.1,0.4,0C985.7,131,985.7,131,985.6,131L985.6,131z M1026.3,131.3c-0.4-0.1-0.9,0.3-1.2,0.5
	C1025.4,131.6,1025.9,131.5,1026.3,131.3z M60.1,141.2c0,0,0.1,0,0.1,0c1.1,0.3,1.1,0.4,0.1,6.6l-0.7,4.2h5.6c3.1,0,5.6,0.4,5.6,1
	c0,0.6-2.6,1-5.9,1h-5.9l-1.1,5.5c-1.3,6.2-3.6,7.8-2.6,1.8c0.4-2.1,0.9-4.5,1.2-5.5c0.4-1.5-0.2-1.8-5.1-1.8
	c-4.2,0-5.6-0.4-5.6-1.4c0-1.1,1.3-1.4,5.7-1.2l5.7,0.2l1-5.3C58.7,143.4,59.5,141.3,60.1,141.2L60.1,141.2z M1118.3,142.8
	c-20,0-39.8,0.6-41.2,1.6c-2.9,2-12.7,17.2-11.9,18.5c0.4,0.7,10.2,1.1,28.8,1.1c15.5,0,28.8,0.4,29.5,0.9c2.5,1.6-2.1,9.6-7.2,12.3
	c-1.4,0.7-11.2,1.4-27.6,1.7l-25.5,0.6l-6.5,3.5c-9.1,4.9-17,13.2-27.9,29.5c-10.8,16-14.1,22.5-14.1,27.6c0,4.3,3,8.5,7.4,10.5
	c3.8,1.6,37.1,1.9,42.8,0.4c2-0.6,6-3.1,8.8-5.6c2.8-2.5,5.1-4.4,5.1-4.2s-1.1,1.9-2.5,3.8s-2.5,4.2-2.5,5.2c0,1.7,1.3,1.8,17.4,1.8
	c16.7,0,17.5-0.1,19.9-2.2c2.1-1.9,17.5-25.2,42.9-65.1c16.2-25.4,18-35.7,7-40.3C1158.5,143.3,1138.3,142.8,1118.3,142.8z
	 M819.9,142.9l-3,2.5c-3.5,3-67.4,100.8-68,104.2c-0.4,2.3-0.4,2.3,11.5,2.3c10.4,0,12.3-0.3,14.5-2c1.4-1.1,14.4-20.2,28.9-42.5
	l26.4-40.5l12.6,0c8,0,13,0.4,13.7,1.1c2,2,2.5,1.3-31.9,53.5c-9.8,14.9-17.8,27.9-17.8,28.8c0,1.4,2.6,1.6,21.9,1.6
	c21.4,0,22-0.1,24.4-2.2c3.7-3.3,51.7-77.3,53.8-83c3.6-9.4,1.7-17.1-5.4-21.3c-3.1-1.9-5.4-2-42.4-2.3L819.9,142.9z M937.8,143
	l-2.5,2.2c-3,2.7-92.6,140.3-92.6,142.1c0,0.7,0.3,1.6,0.7,2c1.2,1.2,32.1,0.7,34.9-0.6c1.8-0.8,7.5-8.5,17.8-24.2
	c10.7-16.3,15.2-22.4,15.4-20.9c0.2,1.2,1.4,3.2,2.8,4.5c2.5,2.4,2.7,2.4,29.8,2.7c25.5,0.3,27.7,0.2,33.5-1.8
	c11.1-3.7,22.2-12.1,29.4-22.3c8.1-11.3,39.7-60.7,41.6-64.9c2.3-5.1,2.5-10.5,0.4-13.5c-3.7-5.2-3.3-5.2-59.3-5.2L937.8,143z
	 M752.3,143.1c-4.1,0-8.7,0.1-13.9,0.1c-34.7,0.3-36.5,0.5-41.8,2.6c-3.1,1.2-7.2,3.7-9.2,5.5c-4.6,4.2-58.8,88.2-59.4,92.2
	c-0.4,2.2,0.1,3.9,1.7,5.8l2.2,2.8h41c38.4,0,41.3-0.1,46.7-2c12.6-4.4,27.7-17,36.1-30c3-4.7,12.3-19.1,20.7-32s15.6-24.7,16-26.3
	c1.1-4.3-0.3-9.5-3.6-13.2C784.5,143.9,781,143,752.3,143.1z M603.4,143.1c-7.8,0-10.3,0.4-12.2,1.4c-2.2,1.2-10.8,13.5-32.5,46.8
	c-38.9,59.5-38.2,58.5-37.5,59.7c0.4,0.6,8,1,20.4,1c15.9,0,20.1-0.3,21.8-1.5c1.2-0.8,10.4-14.2,20.4-29.8
	c20.3-31.3,26.3-38.4,37.3-43.8c3.9-1.9,9.2-3.5,13.9-4.2l7.6-1.1l5.2,3.2c4.4,2.7,5.6,3.1,7.5,2.2c2.4-1.1,21.5-29.3,21.7-32
	c0.1-1.3-1.6-1.6-9.9-1.9c-17.8-0.6-26.9,2.2-37.7,11.7c-2.6,2.3-4.9,4.1-5.3,4.1s1.4-3,3.9-6.7c2.5-3.7,4.4-7.2,4.2-7.8
	c-0.2-0.7-6.8-1.2-19.3-1.4C609.2,143.1,606,143.1,603.4,143.1z M20.3,162.9l-5.2,8.2c-5.1,8-5.2,8.3-3.8,11.1
	c2,3.9,8.1,10.5,12.8,13.9c3.6,2.7,4.5,2.8,13.6,2.8h9.7l1-4.5c1-4.4,1-4.5-1.6-5.1c-12.6-2.7-21.3-10.1-24.8-21.1L20.3,162.9z
	 M707.7,165h17c14.3,0,17.1,0.2,17.6,1.5c0.9,2.3-24.8,41.2-33,50.1c-8.2,8.9-13.1,11.9-22.3,13.9c-14.6,3.1-24,1.4-21.2-3.8
	c3.7-7,36.5-56.6,38.9-58.9L707.7,165z M980.7,165c11.3,0,18.1,0.4,18.5,1c1.1,1.7-25.1,41.4-30.3,46c-6,5.3-15.1,9.7-23.8,11.5
	c-8,1.7-20.1,2-21,0.5c-0.3-0.5-0.2-1.8,0.4-2.8c3.4-6.3,33.7-52.1,35.7-53.9C962.7,165.1,963.5,165,980.7,165z M90.8,166l-3,4.4
	c-6.8,9.8-17.9,16.9-29.7,18.9c-5.7,0.9-6.4,1.3-7,3.7c-0.3,1.4-0.8,3.4-1,4.3c-0.4,1.6,0.5,1.8,10.2,1.8c10.5,0,10.9-0.1,17.3-3.7
	c8-4.4,20.5-16.8,24.4-24.1l2.8-5.2h-7H90.8z M8.2,182.7c-0.8,0.1-1.9,1.8-4.4,6.1c-2.4,4-4,7.9-3.7,8.7c0.5,1.2,2.8,1.5,12.3,1.5
	h11.8l-3.7-2.5c-3.3-2.2-8.4-8.1-11.4-13.1C8.8,182.9,8.5,182.6,8.2,182.7L8.2,182.7z M1076.1,193h15.8c14.4,0,15.8,0.2,15.8,1.8
	c0,1-3.8,7.5-8.5,14.5c-9.3,13.9-14.7,18.7-23.5,20.7c-5.8,1.3-22.7,1.4-23.5,0.1c-0.3-0.5-0.1-1.9,0.5-3.1
	c2.8-5.2,18.4-28.7,20.7-31.1L1076.1,193z M515,260l-4.2,6l-4.2,6h88.6c48.7,0,88.6,0.2,88.6,0.5c0,0.3-4,6.8-9,14.4
	c-5,7.7-9,14.2-9,14.5c0,0.8,410.2,0.6,412.2-0.2c1.4-0.6,26.8-39,26.8-40.6c0-0.3-45.1-0.5-100.3-0.5H904l-9.9,14.7
	c-5.5,8.1-11.2,15.6-12.7,16.8c-2.5,1.9-4.5,2.1-20.3,2.4c-14.7,0.3-17.9,0.1-19.9-1.3c-4.1-2.7-3.2-6.3,4.9-18.8
	c4-6.2,7.6-11.9,8.1-12.5c0.6-1-33.5-1.2-169.2-1.2H515z M812,267c1.2,0,0.5,1-7.8,14.8l-8,13.2h-4.8c-2.6,0-4.8-0.1-4.8-0.2
	s1.3-5.2,2.9-11.2s2.8-11.1,2.6-11.3s-3.4,4.9-7.1,11.2c-5.1,8.7-7.3,11.6-8.8,11.6c-1.8,0-1.9-0.2-0.5-1.8c0.8-1,4.8-7.3,8.8-14
	l7.3-12.2h4.9c4.2,0,4.9,0.2,4.4,1.8c-1.9,6.3-4.6,18.6-4.3,18.9c0.2,0.2,3.2-4.3,6.7-10.1c3.4-5.8,6.9-10.5,7.7-10.5
	C811.6,267,811.8,267,812,267L812,267z M699,267h3.9h3.9l-3.5,5.2c-1.9,2.9-3.3,5.4-3.1,5.6s3.4-2.1,7-5.3c4.4-3.8,7.2-5.6,8.6-5.4
	c1.8,0.3,1.3,0.9-2.8,4l-4.9,3.7l-1.8,10l-1.8,10H700c-2.4,0-4.3-0.1-4.3-0.2s0.7-2.7,1.5-5.8s1.5-5.7,1.5-5.9c0-1.3-5.5,5-7.1,8.2
	c-1.7,3.4-2.3,3.8-5.8,3.8h-3.9l8.6-14L699,267z M728.8,267h3.7l-8.6,14c-8.6,14-8.6,14-12.3,14h-3.7l8.6-14
	C725,267,725.1,267,728.8,267z M782.8,267h3.7l-8.5,14c-8.3,13.7-8.6,14-12,14c-1.9,0-3.3-0.4-3.2-0.8c0.2-0.5,3.9-6.8,8.2-14
	C779,267,779,267,782.8,267z M828.3,267c4.6,0,8.4,0.3,8.3,0.8c-0.1,2.6-2.2,3.5-8.1,3.6l-6.3,0.1l-5.2,8.5
	c-2.9,4.7-5.3,8.8-5.3,9.2s1,0.8,2.4,0.8c1.5,0,3.2-1.1,4.5-2.9c2.4-3.4,2.7-5.5,0.6-4.7c-1.8,0.7-1.9-0.3-0.1-2.6
	c1-1.3,2.8-1.8,6.9-1.8h5.5l-5.1,8.5c-4.5,7.5-5.4,8.5-7.9,8.5c-1.8,0-2.6-0.4-2.2-1.1c0.5-0.8,0.1-0.8-1.4,0
	c-2.2,1.2-9.5,1.5-10.5,0.4c-0.4-0.4-0.7-1.4-0.7-2.2c0-2.2,10.3-19.1,13.5-22.4C819.8,267.2,820.5,267,828.3,267z M910,267h3.8h3.8
	l-3,4.7c-3.7,5.8-3.7,6.5-0.2,6.1c2.2-0.2,3.4-1.4,5.6-5.6c2.7-5,3-5.2,6.7-5.2h3.9l-8,13.2c-4.4,7.3-8.1,13.6-8.2,14.1
	s-1.9,0.7-4,0.5l-3.7-0.3l3.4-5.5c1.9-3,3.4-5.9,3.5-6.3c0-0.4-1.2-0.7-2.7-0.5c-2.2,0.3-3.4,1.6-6.2,6.5c-3.3,5.9-3.7,6.2-7.3,6.2
	c-2.1,0-3.7-0.3-3.5-0.7s3.9-6.7,8.3-14L910,267z M961.9,267h9.4c5.8,0,9.4,0.4,9.4,1c0,2.4-5.2,11.1-7.9,13c-2.2,1.6-3.2,3.5-4.1,8
	l-1.3,5.9h-3.9c-4.4,0-4.6-0.5-2.3-7.4c2.9-8.4-0.2-7.3-5.1,1.8c-2.8,5.3-3.2,5.6-6.9,5.6c-3.8,0-3.8,0-2.4-2.2
	c0.8-1.2,4.5-7.5,8.2-14L961.9,267z M991.7,267c2.8,0,5,0.4,5,0.9s-1.1,3.9-2.5,7.5c-1.4,3.6-2.3,6.6-2.1,6.6s3.2-3.4,6.6-7.5
	c6.1-7.4,6.3-7.5,11-7.5h4.7l-7.9,13.2c-4.3,7.3-8,13.6-8.2,14.1s-1.9,0.7-4,0.5l-3.7-0.3l2.8-4.5c4.2-6.8,9.3-16,8.9-16
	c-0.2,0-4.2,4.7-8.8,10.5c-6.1,7.6-9.1,10.5-10.7,10.5c-1.2,0-2.2-0.3-2.2-0.8s1.3-4.8,3-9.7s2.8-9,2.6-9.2s-2.9,4.2-6.1,9.7
	s-6.4,10-7.1,10s-1.4-0.2-1.4-0.4s3.4-6.2,7.5-13.2s7.5-13.2,7.5-13.6S988.9,267,991.7,267L991.7,267z M1029.4,267
	c7.1,0,8.3,0.2,8.3,1.7c0,2.8-10.8,21-14.1,23.7c-2.7,2.3-4,2.6-10.5,2.6c-5.7,0-7.6-0.4-8-1.5c-0.7-1.9,8.7-18.8,12.9-23.2
	C1021,267.1,1021.3,267,1029.4,267z M1049,267h5.4l-2.4,10.1c-1.3,5.6-2.2,10.3-2,10.6c0.2,0.2,3.1-4.3,6.3-10.1
	c3.8-6.9,6.5-10.5,7.6-10.6c1.3,0-0.2,3.4-6.4,14l-8.1,14h-4.4c-5.2,0-5.2,0.2-2.3-12.2c1.2-4.9,1.9-9.1,1.7-9.3
	c-0.5-0.5-11.8,18.9-11.8,20.4c0,0.6-0.9,1.1-2,1.1s-2-0.2-2-0.3s3.4-6.1,7.5-13.2s7.5-13.2,7.5-13.7
	C1043.7,267.3,1046.1,267,1049,267z M1073.2,267h4.5l-0.5,3.2c-0.3,1.8-0.8,4.4-1,5.8c-0.4,2.1,0.4,1.6,5.3-3.2
	c3.4-3.3,6.7-5.8,7.9-5.8c1.6,0,0,2.1-6.8,8.7c-4.9,4.8-10.3,11.1-11.9,14c-2.7,4.7-3.3,5.3-6.4,5.3c-1.9,0-3.4-0.2-3.4-0.5
	s1.3-2.7,2.9-5.4c2.5-4.2,5.1-15,5.1-21.2C1068.7,267.4,1070.7,267,1073.2,267L1073.2,267z M742,267c2.8,0,3.6,0.3,3,1.2
	c-0.4,0.7-3.6,5.8-7,11.2l-6.3,10l4.5,0.5c4.5,0.5,4.5,0.5,2.9,2.8c-1.4,2-2.4,2.2-9.6,2.2c-4.4,0-7.9-0.4-7.7-0.8
	c0.2-0.4,3.9-6.7,8.3-14C738.2,267.1,738.2,267.1,742,267z M761.9,267c2.1,0,3.8,0.1,3.8,0.3s-2.9,5-6.5,10.8s-6.5,10.7-6.5,11.1
	s1.8,0.8,4,0.8c4.4,0,4.9,0.8,2.2,3.3c-1.4,1.2-3.8,1.7-9.6,1.7h-7.7l2.3-3.8c1.3-2.1,5-8.4,8.3-14
	C758.1,267.3,758.2,267.1,761.9,267z M946.5,267c3.5,0,4.2,0.3,3.8,1.4c-0.3,0.8-2.2,7.1-4.3,14l-3.7,12.5h-4.3h-4.3l1.4-3.5
	c0.8-1.9,1.4-3.7,1.4-4s-2-0.5-4.4-0.5c-3.7,0-4.8,0.5-7,3.1c-1.4,1.7-2.6,3.5-2.6,4s-1.2,0.9-2.6,0.9c-2.4,0-1.9-0.8,5.8-9
	c4.6-5,10.2-11.2,12.4-13.9C941.8,267.5,942.6,267.1,946.5,267z M969.4,271c-2,0-5.7,4.2-5.7,6.4c0,1.8,5,0.3,6.4-1.9
	C972.3,272.2,972.1,271,969.4,271z M1026.1,271c-1.8,0-3.3,1.8-7.3,8.6c-2.8,4.7-5.1,9-5.1,9.5s1.3,0.9,2.8,0.9c2.5,0,3.4-1,7.9-8.9
	c2.8-4.9,4.9-9.2,4.5-9.5C1028.6,271.2,1027.3,271,1026.1,271L1026.1,271z M940.8,273.5l-4.1,4c-2.2,2.2-4.1,4.3-4.1,4.8
	s1.1,0.8,2.5,0.8c2.6,0,3.8-1.6,5-6.5L940.8,273.5z"/>
<path id="path389" inkscape:connector-curvature="0" fill="#FFFFFF" d="M682.3,294.6c0.1-0.1,3.8-6.3,8.4-13.8l8.3-13.5l3.7,0l3.7,0
	l-2.5,3.7c-2.7,4-4,6.5-3.7,6.9c0.3,0.3,2.1-1,6.7-4.8c4.6-3.8,6.8-5.3,8.2-5.6c1.1-0.2,1.6,0.3,1,1c-0.2,0.3-2.1,1.8-4.3,3.5
	c-2.3,1.8-3.9,3.2-4,3.6c-0.1,0.4-0.9,4.6-1.7,9.3c-0.9,4.7-1.6,8.9-1.7,9.3c-0.2,0.7-0.3,0.7-4.1,0.7c-2.8,0-4-0.1-4.1-0.4
	c-0.1-0.2,0.5-2.9,1.3-5.9c0.8-3,1.3-5.6,1.1-5.7c-0.1-0.1-1.2,0.8-2.4,2.1c-2,2.2-3.2,3.7-5.5,7.5c-1.2,2-2.3,2.4-5.8,2.4
	C683.4,294.9,682.2,294.7,682.3,294.6L682.3,294.6z"/>
<path id="path391" inkscape:connector-curvature="0" fill="#FFFFFF" d="M708.3,294.6c1.2-2.3,14.3-23.2,15.3-24.4
	c2.2-2.8,2.6-2.9,5.7-2.8l2.7,0.1l-6.8,11c-10.2,16.6-10,16.4-14.4,16.4C709.4,294.9,708.3,294.8,708.3,294.6L708.3,294.6z"/>
<path id="path393" inkscape:connector-curvature="0" fill="#FFFFFF" d="M724,294.6c-0.9-0.1-1.7-0.3-1.8-0.4
	c-0.2-0.2,11-18.8,13.5-22.6c0.9-1.3,2.1-2.8,2.8-3.4c1.1-1,1.2-1,3.7-0.9c2.2,0.1,2.6,0.2,2.5,0.6c0,0.3-3,5.2-6.5,10.9
	s-6.4,10.5-6.2,10.6c0.2,0.1,1.9,0.4,3.9,0.6s3.7,0.5,3.9,0.7c0.4,0.4-1.2,2.7-2.4,3.3c-0.8,0.4-2,0.6-6.3,0.6
	C728,294.8,724.9,294.7,724,294.6L724,294.6z"/>
<path id="path395" inkscape:connector-curvature="0" fill="#FFFFFF" d="M748.4,283.8c10.4-17.4,9.7-16.7,14.3-16.5l2.8,0.1l-2.7,4.4
	c-5.6,9.1-10.4,17.2-10.4,17.4c0,0.4,1.1,0.7,3.9,0.8c4.2,0.2,4.7,0.7,2.9,2.5c-1.9,1.9-2.8,2.1-10.5,2.2l-7,0.1L748.4,283.8z"/>
<path id="path397" inkscape:connector-curvature="0" fill="#FFFFFF" d="M763.8,294.6c-0.4-0.1-0.7-0.3-0.7-0.5
	c0-0.4,8.8-15.3,12.4-21c1.3-2,2.9-4.2,3.6-4.8c1.2-1.1,1.3-1.1,4.1-1.1c1.6,0,2.8,0.1,2.8,0.1c0,0.3-11.6,19.2-13.7,22.4
	c-2.8,4.2-3.8,5-6.1,5C765.2,294.8,764.2,294.7,763.8,294.6L763.8,294.6z"/>
<path id="path399" inkscape:connector-curvature="0" fill="#FFFFFF" d="M775.2,294.5c0.1-0.2,1.3-1.9,2.5-3.8
	c1.2-1.9,5-7.9,8.2-13.4l6-10h4.3c3.1,0,4.4,0.1,4.7,0.4c0.2,0.3-0.1,1.9-1.1,5.7c-1.6,6.2-3,12.3-3,13.5c0,0.7,0.1,0.8,0.5,0.4
	c0.6-0.5,2.7-3.7,5.5-8.4c4.8-8,7.6-11.7,8.8-11.7c0.5,0,0.6,0.1,0.4,0.5c-0.3,0.7-4,7.1-10.6,17.9l-5.4,8.9l-4.4,0.1
	c-2.4,0-4.5,0-4.6-0.2c-0.2-0.2,0.6-3.5,1.8-7.9c2.6-9.8,3.4-13.3,3.3-14.1c-0.1-0.8-1.1,0.6-7.1,10.7c-4,6.7-6.5,10.3-7.6,11.1
	C776.6,295,774.9,295,775.2,294.5L775.2,294.5z"/>
<path id="path401" inkscape:connector-curvature="0" fill="#FFFFFF" d="M805.5,294.7c-0.9-0.2-1.6-1.3-1.6-2.4c0-1.1,2.5-5.9,6-11.5
	c5.5-9,8.4-12.5,11-13.2c1.5-0.4,15.1-0.3,15.5,0.1c0.4,0.4-0.3,1.9-1.3,2.5c-1.1,0.7-5.4,1.2-9.7,1.2l-3.1,0l-3.5,5.7
	c-5.4,8.8-7.1,11.8-6.9,12.3c0.2,0.6,2.1,0.9,3.4,0.6c1.4-0.3,3.7-2.7,4.8-4.9c1.2-2.4,1-2.9-0.7-2.8c-1.5,0.1-1.6-0.1-0.5-1.8
	c1.2-1.8,1.9-2,7.4-2.2l4.9-0.1l-1.6,2.8c-5.8,9.9-7.6,12.5-9.1,13.4c-1.7,0.9-4.3,0.6-3.9-0.5c0.3-0.7,0-0.6-2.4,0.2
	C812.2,294.6,807.1,295,805.5,294.7L805.5,294.7z"/>
<path id="path403" inkscape:connector-curvature="0" fill="#FFFFFF" d="M894.8,294.6c-0.4-0.1-0.7-0.2-0.7-0.4
	c0-0.3,2.6-4.6,10.5-18l5.3-9l3.5,0c1.9,0,3.5,0.1,3.5,0.2c0,0.1-0.9,1.6-2,3.4c-2.5,3.9-3.5,5.9-3.2,6.6c0.1,0.4,0.6,0.5,1.8,0.5
	c2.9,0,3.9-0.9,6.7-5.9c1-1.7,2.2-3.5,2.7-3.9c0.9-0.8,1.2-0.8,4.1-0.8h3.1l-0.5,0.7c-0.8,1.3-12.9,21.6-14.3,24.1
	c-1.2,2.1-1.5,2.4-2.4,2.5c-1.6,0.2-5.8-0.1-5.8-0.4c0-0.2,0.9-1.7,1.9-3.3c1.1-1.7,2.6-4.2,3.3-5.7c1.2-2.1,1.3-2.7,1-2.9
	c-0.7-0.5-3.8-0.1-4.8,0.5c-0.9,0.7-2.8,3.4-5.1,7.3c-1.8,3.1-2.9,4.3-4.2,4.6C898.4,294.9,896,294.9,894.8,294.6L894.8,294.6z"/>
<path id="path405" inkscape:connector-curvature="0" fill="#FFFFFF" d="M919.1,294.6c-0.3-0.4,1.4-2.6,6.9-8.6
	c2.9-3.1,7.4-8.2,10-11.2c5.4-6.2,5.9-6.7,7.1-7.2c1.4-0.5,6.8-0.4,7,0.1c0.1,0.2-0.5,2.4-1.2,4.8s-2.6,8.4-4,13.4l-2.6,9l-4.1,0
	l-4.1,0l1.4-3.5c0.8-1.9,1.3-3.6,1.2-3.9c-0.2-0.6-4.4-0.9-6.7-0.5c-1,0.2-2.3,0.6-2.8,1c-1.3,0.9-3.4,3.5-4.2,5.1
	c-0.4,0.8-0.9,1.4-1.3,1.5C920.6,294.9,919.3,294.9,919.1,294.6L919.1,294.6z M937.7,282.2c0.4-0.4,1-1.2,1.3-1.8
	c0.7-1.5,2-6.5,1.7-6.8c-0.1-0.1-2,1.6-4.1,3.8c-2.9,3-3.9,4.2-3.8,4.7C932.9,283.4,936.3,283.4,937.7,282.2L937.7,282.2z"/>
<path id="path407" inkscape:connector-curvature="0" fill="#FFFFFF" d="M946.3,294.6c-0.1-0.2,1.3-2.7,3.1-5.7s5.3-9.1,7.9-13.5
	l4.7-8.1l8.8,0.1c4.8,0.1,9,0.2,9.3,0.4c0.5,0.2,0.5,0.4,0.1,1.6c-1,3.2-4.4,8.5-7.6,11.6c-2.6,2.6-3.2,3.9-4.5,9.8l-0.8,3.9
	l-2.9,0.1c-3.3,0.1-4.4-0.3-4.4-1.6c0-0.4,0.6-2.6,1.3-4.9c1.4-4.6,1.5-6.5,0.5-6.4c-1,0.1-2.6,2.2-5.5,7.2
	c-3.2,5.5-3.5,5.7-7.2,5.7C947.6,294.9,946.4,294.7,946.3,294.6L946.3,294.6z M967.8,277.4c3.3-1.7,5-5.8,2.6-6.4
	c-0.5-0.1-1.4-0.1-1.9,0.1c-2.2,0.7-5.7,5.7-4.8,6.8C964.3,278.5,966,278.3,967.8,277.4L967.8,277.4z"/>
<path id="path409" inkscape:connector-curvature="0" fill="#FFFFFF" d="M972.1,294.6c-0.2-0.3,0.6-1.7,8.2-14.8
	c2.4-4.2,4.9-8.7,5.5-9.9c0.8-1.5,1.3-2.3,1.8-2.4c0.9-0.2,7.1-0.3,8,0c0.4,0.1,0.7,0.4,0.7,0.7c0,0.3-1,3.4-2.2,7
	c-1.2,3.6-2.1,6.6-2,6.7c0.3,0.3,1.4-1,5.9-6.4c3.9-4.6,6.4-7.3,7.5-7.9c0.6-0.3,2-0.4,4.6-0.4c2.1,0,3.8,0.1,3.8,0.2
	c0,0.1-3.1,5.5-7,12s-7.4,12.6-7.9,13.5c-0.7,1.4-1,1.6-1.9,1.7c-1.6,0.2-5.8-0.1-5.8-0.4c0-0.1,1.7-3.1,3.7-6.5
	c4.1-6.8,7.1-12.3,7.4-13.3c0.3-1-1.8,1.3-7.6,8.4c-5.5,6.7-9,10.5-10.6,11.5c-1.3,0.8-3.2,0.6-3.2-0.3c0-0.3,1.1-4.1,2.5-8.4
	c2.3-7.1,3.2-10.5,2.7-10.5c-0.2,0-3.7,5.4-6,9.6c-2,3.5-4.5,7.2-5.9,9C973.4,294.8,972.4,295.2,972.1,294.6L972.1,294.6z"/>
<path id="path413" inkscape:connector-curvature="0" fill="#FFFFFF" d="M1007.3,294.5c-2.2-0.5-2.4-0.9-1.8-2.9
	c1.4-4.5,9.1-17.4,12.4-21c3-3.3,3.3-3.3,11.2-3.4c3.7,0,7,0.1,7.4,0.3c0.6,0.2,0.8,0.5,0.8,1.2c0,2.6-9.8,19.2-13.6,23
	c-2.5,2.5-3.6,2.8-9.8,2.9C1011.1,294.8,1008.1,294.7,1007.3,294.5L1007.3,294.5z M1019.7,288.5c2.4-2.7,9.4-15.3,9.2-16.6
	c-0.1-0.6-0.4-0.7-1.5-0.9c-2.8-0.5-4.2,0.9-8.5,8c-3.3,5.5-5.4,9.6-5.3,10.2c0.1,0.7,1.3,1,3.2,0.8
	C1018.2,289.9,1018.5,289.8,1019.7,288.5L1019.7,288.5z"/>
<path id="path415" inkscape:connector-curvature="0" fill="#FFFFFF" d="M1029.1,294.6c-0.1-0.1,2.4-4.7,5.5-10.1
	c3.1-5.4,6.5-11.4,7.5-13.3c1.3-2.5,2.1-3.5,2.6-3.7c1.3-0.3,9.3-0.2,9.3,0.1c0,0.2-0.7,3.3-1.5,7c-2.3,10.1-2.9,13.1-2.2,13.1
	c0.3,0,2.9-4.2,6.6-10.7c3.1-5.5,4.1-7,5.6-8.5c2.1-2.2,2.2-1.2,0.2,2.8c-1.2,2.5-9.4,17-12.3,21.9l-1.1,1.8l-3.7-0.1
	c-2.5-0.1-3.8-0.2-4.1-0.5c-0.7-0.7-0.4-3.1,1.3-10.4c0.9-3.9,1.7-7.9,1.8-8.9l0.2-1.9l-0.8,0.9c-1.6,1.7-10.6,17.4-11,19.2
	c-0.1,0.4-0.5,1-0.9,1.2C1031.2,294.9,1029.4,295,1029.1,294.6L1029.1,294.6z"/>
<path id="path417" inkscape:connector-curvature="0" fill="#FFFFFF" d="M1061.3,294.6c-0.3-0.2,0-1,1.5-3.8c1.1-1.9,2.4-4.9,3-6.6
	c1.3-3.8,2.6-10.1,2.8-13.7c0.2-3.2,0.2-3.2,5.2-3.2h3.5l-0.7,4.2c-0.8,4.5-0.9,5.9-0.5,5.9c0.4,0,1.9-1.2,5.3-4.4
	c1.8-1.7,4.1-3.6,5.1-4.3c1.8-1.2,3.1-1.6,3.1-1c0,0.4-2.5,3.2-8.3,9.1c-5.9,6-9.3,10.2-11.5,13.8c-0.8,1.3-1.9,2.8-2.4,3.3
	c-0.9,0.9-1.2,0.9-3.4,1C1062.8,294.8,1061.5,294.8,1061.3,294.6z"/>
</svg>
